<svg xmlns="http://www.w3.org/2000/svg" width="20" height="20" viewBox="0 0 20 20" fill="none">
  <path fill-rule="evenodd" clip-rule="evenodd" d="M10 3.75C10.3452 3.75 10.625 4.02982 10.625 4.375V9.375H15.625C15.9702 9.375 16.25 9.65482 16.25 10C16.25 10.3452 15.9702 10.625 15.625 10.625H10.625V15.625C10.625 15.9702 10.3452 16.25 10 16.25C9.65482 16.25 9.375 15.9702 9.375 15.625V10.625H4.375C4.02982 10.625 3.75 10.3452 3.75 10C3.75 9.65482 4.02982 9.375 4.375 9.375H9.375V4.375C9.375 4.02982 9.65482 3.75 10 3.75Z" fill="white"/>
</svg>