<svg xmlns="http://www.w3.org/2000/svg" width="40" height="40" viewBox="0 0 40 40" fill="none">
  <g clip-path="url(#clip0_1878_1551)">
    <path d="M40.0002 38.3334C40.0002 38.7754 39.8247 39.1993 39.5121 39.5119C39.1995 39.8244 38.7756 40 38.3336 40H1.66691C1.22488 40 0.800961 39.8244 0.4884 39.5119C0.175839 39.1993 0.00024449 38.7754 0.00024449 38.3334C0.00024449 37.8913 0.175839 37.4674 0.4884 37.1549C0.800961 36.8423 1.22488 36.6667 1.66691 36.6667H38.3336C38.7756 36.6667 39.1995 36.8423 39.5121 37.1549C39.8247 37.4674 40.0002 37.8913 40.0002 38.3334ZM0.485245 14.2534C0.126115 13.5872 -0.0402644 12.8342 0.00477854 12.0788C0.0498215 11.3234 0.304504 10.5954 0.740245 9.9767C1.45234 8.93189 2.40599 8.0743 3.52024 7.4767L16.0219 0.970031C17.2507 0.331083 18.6153 -0.00250244 20.0002 -0.00250244C21.3852 -0.00250244 22.7498 0.331083 23.9786 0.970031L36.4786 7.4817C37.5928 8.0793 38.5465 8.93689 39.2586 9.9817C39.6943 10.6004 39.949 11.3284 39.994 12.0838C40.0391 12.8392 39.8727 13.5922 39.5136 14.2584C39.1269 14.9897 38.5471 15.601 37.8371 16.0257C37.1271 16.4503 36.3142 16.672 35.4869 16.6667H35.0002V30H36.6669C37.1089 30 37.5329 30.1756 37.8454 30.4882C38.158 30.8007 38.3336 31.2247 38.3336 31.6667C38.3336 32.1087 38.158 32.5327 37.8454 32.8452C37.5329 33.1578 37.1089 33.3334 36.6669 33.3334H3.33358C2.89155 33.3334 2.46763 33.1578 2.15507 32.8452C1.84251 32.5327 1.66691 32.1087 1.66691 31.6667C1.66691 31.2247 1.84251 30.8007 2.15507 30.4882C2.46763 30.1756 2.89155 30 3.33358 30H5.00024V16.6667H4.51358C3.68551 16.6719 2.87192 16.4495 2.16156 16.024C1.4512 15.5984 0.871342 14.9859 0.485245 14.2534V14.2534ZM8.33358 30H13.3336V16.6667H8.33358V30ZM16.6669 16.6667V30H23.3336V16.6667H16.6669ZM31.6669 16.6667H26.6669V30H31.6669V16.6667ZM3.43858 12.7084C3.54315 12.9012 3.69877 13.0615 3.88838 13.1717C4.078 13.2819 4.29429 13.3379 4.51358 13.3334H35.4869C35.7062 13.3379 35.9225 13.2819 36.1121 13.1717C36.3017 13.0615 36.4573 12.9012 36.5619 12.7084C36.6381 12.581 36.6749 12.4339 36.6678 12.2857C36.6607 12.1374 36.6099 11.9945 36.5219 11.875C36.1181 11.2749 35.5755 10.7809 34.9402 10.435L22.4402 3.92336C21.6869 3.5324 20.8506 3.32832 20.0019 3.32832C19.1532 3.32832 18.3169 3.5324 17.5636 3.92336L5.06358 10.435C4.42855 10.782 3.88613 11.2765 3.48191 11.8767C3.39373 11.9957 3.34258 12.1381 3.33487 12.286C3.32717 12.4339 3.36324 12.5808 3.43858 12.7084V12.7084Z" fill="#121A30"/>
  </g>
  <defs>
    <clipPath id="clip0_1878_1551">
      <rect width="40" height="40" fill="white"/>
    </clipPath>
  </defs>
</svg>