<svg xmlns="http://www.w3.org/2000/svg" width="40" height="40" viewBox="0 0 40 40" fill="none">
  <path d="M2.15497 21.1783L8.82164 27.845C8.97538 28.0042 9.15929 28.1311 9.36263 28.2185C9.56597 28.3058 9.78467 28.3518 10.006 28.3537C10.2273 28.3557 10.4467 28.3135 10.6516 28.2297C10.8564 28.1459 11.0425 28.0221 11.199 27.8657C11.3555 27.7092 11.4792 27.5231 11.563 27.3182C11.6468 27.1134 11.689 26.894 11.6871 26.6727C11.6851 26.4514 11.6392 26.2327 11.5518 26.0293C11.4645 25.826 11.3375 25.6421 11.1783 25.4883L5.68997 20L11.1783 14.5117C11.3375 14.3579 11.4645 14.174 11.5518 13.9707C11.6392 13.7673 11.6851 13.5486 11.6871 13.3273C11.689 13.106 11.6468 12.8866 11.563 12.6817C11.4792 12.4769 11.3555 12.2908 11.199 12.1343C11.0425 11.9778 10.8564 11.8541 10.6516 11.7703C10.4467 11.6865 10.2273 11.6443 10.006 11.6462C9.78467 11.6482 9.56597 11.6941 9.36263 11.7815C9.15929 11.8688 8.97538 11.9958 8.82164 12.155L2.15497 18.8217C1.84252 19.1342 1.66699 19.5581 1.66699 20C1.66699 20.4419 1.84252 20.8658 2.15497 21.1783Z" fill="black"/>
  <path d="M31.1785 12.155C31.0247 11.9958 30.8408 11.8688 30.6375 11.7815C30.4341 11.6941 30.2154 11.6482 29.9941 11.6462C29.7728 11.6443 29.5534 11.6865 29.3485 11.7703C29.1437 11.8541 28.9576 11.9778 28.8011 12.1343C28.6447 12.2908 28.5209 12.4769 28.4371 12.6817C28.3533 12.8866 28.3111 13.106 28.3131 13.3273C28.315 13.5486 28.361 13.7673 28.4483 13.9707C28.5356 14.174 28.6626 14.3579 28.8218 14.5117L34.3101 20L28.8218 25.4883C28.6626 25.6421 28.5356 25.826 28.4483 26.0293C28.361 26.2327 28.315 26.4514 28.3131 26.6727C28.3111 26.894 28.3533 27.1134 28.4371 27.3182C28.5209 27.5231 28.6447 27.7092 28.8011 27.8657C28.9576 28.0221 29.1437 28.1459 29.3485 28.2297C29.5534 28.3135 29.7728 28.3557 29.9941 28.3537C30.2154 28.3518 30.4341 28.3058 30.6375 28.2185C30.8408 28.1311 31.0247 28.0042 31.1785 27.845L37.8451 21.1783C38.1576 20.8658 38.3331 20.4419 38.3331 20C38.3331 19.5581 38.1576 19.1342 37.8451 18.8217L31.1785 12.155Z" fill="black"/>
  <path d="M21.7318 7.87666L15.0651 31.21C14.9437 31.6348 14.996 32.0904 15.2104 32.4766C15.4248 32.8629 15.7838 33.1483 16.2084 33.27C16.3577 33.3112 16.5119 33.3325 16.6668 33.3333C17.029 33.3331 17.3812 33.2148 17.6702 32.9965C17.9592 32.7782 18.1692 32.4717 18.2684 32.1233L24.9351 8.79C25.0046 8.57692 25.0304 8.35201 25.0109 8.12873C24.9915 7.90545 24.9272 7.68838 24.822 7.49051C24.7167 7.29265 24.5726 7.11804 24.3983 6.97715C24.224 6.83625 24.0231 6.73196 23.8075 6.6705C23.592 6.60905 23.3663 6.5917 23.1439 6.61949C22.9215 6.64728 22.707 6.71964 22.5132 6.83224C22.3194 6.94485 22.1503 7.09538 22.0161 7.27483C21.8818 7.45429 21.7851 7.65898 21.7318 7.87666Z" fill="black"/>
</svg>