<svg width="17" height="16" viewBox="0 0 17 16" fill="none" xmlns="http://www.w3.org/2000/svg">
<g id="ellipsis-horizontal">
<g id="Vector">
<path d="M8.5 9.5C9.32843 9.5 10 8.82843 10 8C10 7.17157 9.32843 6.5 8.5 6.5C7.67157 6.5 7 7.17157 7 8C7 8.82843 7.67157 9.5 8.5 9.5Z" fill="#373737"/>
<path d="M13.5 9.5C14.3284 9.5 15 8.82843 15 8C15 7.17157 14.3284 6.5 13.5 6.5C12.6716 6.5 12 7.17157 12 8C12 8.82843 12.6716 9.5 13.5 9.5Z" fill="#373737"/>
<path d="M3.5 9.5C4.32843 9.5 5 8.82843 5 8C5 7.17157 4.32843 6.5 3.5 6.5C2.67157 6.5 2 7.17157 2 8C2 8.82843 2.67157 9.5 3.5 9.5Z" fill="#373737"/>
</g>
</g>
</svg>
