<svg xmlns="http://www.w3.org/2000/svg" width="24" height="24" viewBox="0 0 24 24" fill="none">
  <path d="M20.2501 20.9996C20.1516 20.9998 20.054 20.9804 19.963 20.9427C19.872 20.905 19.7894 20.8496 19.7199 20.7798L3.2199 4.27976C3.08519 4.13797 3.01119 3.94915 3.0137 3.75358C3.0162 3.55801 3.095 3.37115 3.23331 3.23285C3.37161 3.09455 3.55846 3.01575 3.75403 3.01325C3.94961 3.01074 4.13842 3.08473 4.28021 3.21945L20.7802 19.7194C20.885 19.8243 20.9564 19.9579 20.9853 20.1034C21.0142 20.2488 20.9994 20.3996 20.9426 20.5366C20.8859 20.6736 20.7898 20.7907 20.6666 20.8731C20.5433 20.9555 20.3983 20.9995 20.2501 20.9996Z" fill="#989898"/>
  <path d="M11.6251 14.8051L9.1974 12.3774C9.18349 12.3636 9.16561 12.3545 9.14627 12.3514C9.12692 12.3483 9.10709 12.3513 9.08956 12.3601C9.07203 12.3688 9.05767 12.3828 9.04852 12.4002C9.03936 12.4175 9.03585 12.4372 9.0385 12.4566C9.13651 13.0865 9.43223 13.6688 9.88295 14.1195C10.3337 14.5702 10.916 14.866 11.5458 14.964C11.5653 14.9666 11.585 14.9631 11.6023 14.954C11.6196 14.9448 11.6337 14.9304 11.6424 14.9129C11.6511 14.8954 11.6542 14.8756 11.6511 14.8562C11.6479 14.8369 11.6389 14.819 11.6251 14.8051Z" fill="#989898"/>
  <path d="M12.3751 9.19414L14.8065 11.6246C14.8203 11.6386 14.8383 11.6479 14.8577 11.6511C14.8771 11.6543 14.8971 11.6513 14.9148 11.6425C14.9324 11.6338 14.9468 11.6197 14.956 11.6022C14.9652 11.5848 14.9686 11.5649 14.9658 11.5454C14.8681 10.9147 14.5721 10.3315 14.1208 9.88022C13.6696 9.42894 13.0864 9.13299 12.4557 9.03523C12.4362 9.03222 12.4162 9.03545 12.3986 9.04447C12.381 9.0535 12.3667 9.06784 12.3578 9.08547C12.3488 9.10309 12.3457 9.12309 12.3488 9.1426C12.3519 9.16212 12.3611 9.18015 12.3751 9.19414Z" fill="#989898"/>
  <path d="M23.0157 12.8134C23.1709 12.5698 23.2529 12.2868 23.2521 11.998C23.2513 11.7092 23.1676 11.4267 23.011 11.184C21.7707 9.26586 20.1615 7.63648 18.3577 6.47164C16.3594 5.18164 14.1563 4.49961 11.9851 4.49961C10.8404 4.50118 9.70356 4.6878 8.6185 5.05226C8.58813 5.06236 8.56085 5.08007 8.53926 5.10369C8.51767 5.12732 8.50249 5.15608 8.49516 5.18723C8.48783 5.21839 8.48859 5.2509 8.49738 5.28167C8.50617 5.31245 8.52269 5.34046 8.54537 5.36304L10.7597 7.57742C10.7827 7.60046 10.8114 7.61712 10.8428 7.62575C10.8742 7.63438 10.9073 7.63469 10.9388 7.62664C11.6894 7.44372 12.4744 7.45713 13.2183 7.66556C13.9622 7.87399 14.64 8.27043 15.1862 8.81671C15.7325 9.36298 16.129 10.0407 16.3374 10.7846C16.5458 11.5285 16.5592 12.3135 16.3763 13.0641C16.3683 13.0956 16.3687 13.1286 16.3773 13.1599C16.3859 13.1912 16.4026 13.2198 16.4255 13.2427L19.6107 16.4302C19.6438 16.4634 19.6882 16.483 19.7351 16.4851C19.7819 16.4872 19.8279 16.4716 19.8638 16.4415C21.0899 15.3964 22.1523 14.1735 23.0157 12.8134Z" fill="#989898"/>
  <path d="M12.0001 16.4996C11.3188 16.4996 10.6465 16.345 10.0338 16.0474C9.421 15.7498 8.88381 15.3169 8.46269 14.7815C8.04157 14.246 7.74751 13.622 7.60268 12.9563C7.45785 12.2907 7.46604 11.6008 7.62662 10.9388C7.63458 10.9073 7.63424 10.8743 7.62561 10.843C7.61698 10.8117 7.60037 10.7832 7.5774 10.7602L4.44428 7.6257C4.41105 7.59244 4.36655 7.57287 4.31958 7.57087C4.27261 7.56888 4.22661 7.5846 4.19068 7.61492C3.0474 8.59039 1.98756 9.77726 1.01865 11.1643C0.849051 11.4077 0.755645 11.6961 0.750304 11.9927C0.744962 12.2893 0.827926 12.5809 0.988652 12.8302C2.22662 14.7676 3.81943 16.3993 5.59553 17.5482C7.59662 18.8434 9.74631 19.4996 11.9851 19.4996C13.1412 19.4965 14.2899 19.3139 15.3901 18.9582C15.4207 18.9484 15.4483 18.9309 15.4702 18.9074C15.4921 18.8838 15.5076 18.855 15.5152 18.8238C15.5228 18.7925 15.5222 18.7598 15.5135 18.7289C15.5048 18.6979 15.4883 18.6697 15.4655 18.6469L13.2404 16.4223C13.2174 16.3993 13.1889 16.3827 13.1576 16.3741C13.1263 16.3654 13.0933 16.3651 13.0618 16.373C12.7142 16.4573 12.3577 16.4998 12.0001 16.4996Z" fill="#989898"/>
</svg>