<svg xmlns="http://www.w3.org/2000/svg" width="24" height="24" viewBox="0 0 24 24" fill="none">
  <path d="M11.9996 15C13.6565 15 14.9996 13.6569 14.9996 12C14.9996 10.3431 13.6565 9 11.9996 9C10.3428 9 8.99961 10.3431 8.99961 12C8.99961 13.6569 10.3428 15 11.9996 15Z" fill="#989898"/>
  <path d="M23.0077 11.1844C21.7674 9.26625 20.1582 7.63688 18.3545 6.47203C16.359 5.18203 14.1559 4.5 11.9837 4.5C9.99054 4.5 8.0307 5.06953 6.15851 6.19266C4.24929 7.33781 2.51961 9.01078 1.01726 11.1647C0.847663 11.4081 0.754257 11.6965 0.748915 11.9931C0.743573 12.2897 0.826537 12.5813 0.987264 12.8306C2.22523 14.768 3.81851 16.3997 5.59414 17.5486C7.59336 18.8437 9.74492 19.5 11.9837 19.5C14.1732 19.5 16.381 18.8236 18.368 17.5444C20.1709 16.3833 21.7768 14.7478 23.0124 12.8137C23.1676 12.5702 23.2497 12.2872 23.2488 11.9984C23.248 11.7096 23.1643 11.4271 23.0077 11.1844ZM11.9996 16.5C11.1096 16.5 10.2396 16.2361 9.49954 15.7416C8.75952 15.2471 8.18274 14.5443 7.84215 13.7221C7.50155 12.8998 7.41244 11.995 7.58607 11.1221C7.75971 10.2492 8.18829 9.44736 8.81763 8.81802C9.44696 8.18868 10.2488 7.7601 11.1217 7.58647C11.9946 7.41283 12.8994 7.50195 13.7217 7.84254C14.5439 8.18314 15.2468 8.75991 15.7412 9.49993C16.2357 10.24 16.4996 11.11 16.4996 12C16.4982 13.1931 16.0237 14.3369 15.1801 15.1805C14.3365 16.0241 13.1927 16.4986 11.9996 16.5Z" fill="#989898"/>
</svg>