<svg width="15" height="15" viewBox="0 0 15 15" fill="none" xmlns="http://www.w3.org/2000/svg">
<g id="Group 26">
<path id="Vector 1 (Stroke)" fill-rule="evenodd" clip-rule="evenodd" d="M7.33241 7.39593C7.05579 7.11931 7.05579 6.67082 7.33241 6.3942L12.0465 1.68015C12.3231 1.40353 12.7716 1.40353 13.0482 1.68015C13.3248 1.95677 13.3248 2.40527 13.0482 2.68189L8.33415 7.39593C8.05752 7.67255 7.60903 7.67255 7.33241 7.39593Z" fill="#2B4EBC"/>
<path id="Vector 3 (Stroke)" fill-rule="evenodd" clip-rule="evenodd" d="M8.89404 1.5906C8.89404 1.19939 9.21117 0.882263 9.60238 0.882263L12.3209 0.882263C13.1723 0.882263 13.8625 1.57249 13.8625 2.42393L13.8625 5.12843C13.8625 5.51963 13.5454 5.83677 13.1542 5.83677C12.763 5.83677 12.4459 5.51963 12.4459 5.12843L12.4459 2.42393C12.4459 2.35489 12.3899 2.29893 12.3209 2.29893L9.60238 2.29893C9.21117 2.29893 8.89404 1.9818 8.89404 1.5906Z" fill="#2B4EBC"/>
<path id="Rectangle 18 (Stroke)" fill-rule="evenodd" clip-rule="evenodd" d="M4.49992 2.04167C3.05017 2.04167 1.87492 3.21692 1.87492 4.66667V10.5C1.87492 11.9497 3.05017 13.125 4.49992 13.125H10.3333C11.783 13.125 12.9583 11.9497 12.9583 10.5V7.52381C12.9583 7.13261 13.2754 6.81548 13.6666 6.81548C14.0578 6.81548 14.3749 7.13261 14.3749 7.52381V10.5C14.3749 12.7322 12.5654 14.5417 10.3333 14.5417H4.49992C2.26777 14.5417 0.458252 12.7322 0.458252 10.5V4.66667C0.458252 2.43452 2.26777 0.625 4.49992 0.625H6.85111C7.24231 0.625 7.55944 0.942132 7.55944 1.33333C7.55944 1.72454 7.24231 2.04167 6.85111 2.04167H4.49992Z" fill="#2B4EBC"/>
</g>
</svg>
