<svg width="24" height="24" viewBox="0 0 24 24" fill="none" xmlns="http://www.w3.org/2000/svg">
<g id="fi-rr-bank" clip-path="url(#clip0_2042_377)">
<path id="Vector" d="M24.0002 23C24.0002 23.2653 23.8948 23.5196 23.7073 23.7071C23.5197 23.8947 23.2654 24 23.0001 24H1.00015C0.73493 24 0.480576 23.8947 0.29304 23.7071C0.105504 23.5196 0.000146694 23.2653 0.000146694 23C0.000146694 22.7348 0.105504 22.4805 0.29304 22.2929C0.480576 22.1054 0.73493 22 1.00015 22H23.0001C23.2654 22 23.5197 22.1054 23.7073 22.2929C23.8948 22.4805 24.0002 22.7348 24.0002 23ZM0.291147 8.55203C0.075669 8.15236 -0.0241587 7.70054 0.00286712 7.24728C0.0298929 6.79403 0.182703 6.35727 0.444147 5.98603C0.871405 5.35915 1.44359 4.84459 2.11215 4.48603L9.61315 0.582032C10.3504 0.198663 11.1692 -0.00148773 12.0001 -0.00148773C12.8311 -0.00148773 13.6499 0.198663 14.3871 0.582032L21.8871 4.48903C22.5557 4.84759 23.1279 5.36215 23.5551 5.98903C23.8166 6.36027 23.9694 6.79703 23.9964 7.25028C24.0235 7.70354 23.9236 8.15536 23.7081 8.55503C23.4762 8.99386 23.1282 9.36064 22.7022 9.61542C22.2762 9.87021 21.7885 10.0032 21.2921 10H21.0001V18H22.0001C22.2654 18 22.5197 18.1054 22.7073 18.2929C22.8948 18.4805 23.0001 18.7348 23.0001 19C23.0001 19.2653 22.8948 19.5196 22.7073 19.7071C22.5197 19.8947 22.2654 20 22.0001 20H2.00015C1.73493 20 1.48058 19.8947 1.29304 19.7071C1.1055 19.5196 1.00015 19.2653 1.00015 19C1.00015 18.7348 1.1055 18.4805 1.29304 18.2929C1.48058 18.1054 1.73493 18 2.00015 18H3.00015V10H2.70815C2.21131 10.0031 1.72315 9.86974 1.29694 9.6144C0.870718 9.35906 0.522805 8.99157 0.291147 8.55203ZM5.00015 18H8.00015V10H5.00015V18ZM10.0001 10V18H14.0001V10H10.0001ZM19.0001 10H16.0001V18H19.0001V10ZM2.06315 7.62503C2.12589 7.74071 2.21926 7.83689 2.33303 7.90304C2.4468 7.96918 2.57658 8.00274 2.70815 8.00003H21.2921C21.4237 8.00274 21.5535 7.96918 21.6673 7.90304C21.781 7.83689 21.8744 7.74071 21.9371 7.62503C21.9829 7.5486 22.005 7.46036 22.0007 7.37141C21.9964 7.28245 21.966 7.19674 21.9131 7.12503C21.6709 6.76495 21.3453 6.46857 20.9641 6.26103L13.4641 2.35403C13.0122 2.11946 12.5104 1.99701 12.0011 1.99701C11.4919 1.99701 10.9901 2.11946 10.5381 2.35403L3.03815 6.26103C2.65713 6.46924 2.33168 6.76589 2.08915 7.12603C2.03624 7.19744 2.00555 7.28286 2.00092 7.37161C1.9963 7.46037 2.01794 7.54851 2.06315 7.62503Z" fill="#989898"/>
</g>
<defs>
<clipPath id="clip0_2042_377">
<rect width="24" height="24" fill="white"/>
</clipPath>
</defs>
</svg>
