<svg width="64" height="64" viewBox="0 0 64 64" fill="none" xmlns="http://www.w3.org/2000/svg">
<g id="fi-rr-lock" clip-path="url(#clip0_746_619)">
<path id="Vector" d="M50.6664 22.464V18.6667C50.6664 13.716 48.6998 8.96802 45.1991 5.46734C41.6984 1.96666 36.9505 0 31.9998 0C27.0491 0 22.3011 1.96666 18.8004 5.46734C15.2998 8.96802 13.3331 13.716 13.3331 18.6667V22.464C10.9581 23.5005 8.93655 25.2067 7.51577 27.3739C6.09499 29.5411 5.33652 32.0753 5.33311 34.6667V50.6667C5.33734 54.2016 6.74346 57.5905 9.24303 60.0901C11.7426 62.5897 15.1315 63.9958 18.6664 64H45.3331C48.868 63.9958 52.257 62.5897 54.7565 60.0901C57.2561 57.5905 58.6622 54.2016 58.6664 50.6667V34.6667C58.663 32.0753 57.9046 29.5411 56.4838 27.3739C55.063 25.2067 53.0415 23.5005 50.6664 22.464ZM18.6664 18.6667C18.6664 15.1304 20.0712 11.7391 22.5717 9.23858C25.0722 6.73809 28.4636 5.33333 31.9998 5.33333C35.536 5.33333 38.9274 6.73809 41.4279 9.23858C43.9283 11.7391 45.3331 15.1304 45.3331 18.6667V21.3333H18.6664V18.6667ZM53.3331 50.6667C53.3331 52.7884 52.4902 54.8232 50.99 56.3235C49.4897 57.8238 47.4548 58.6667 45.3331 58.6667H18.6664C16.5447 58.6667 14.5099 57.8238 13.0096 56.3235C11.5093 54.8232 10.6664 52.7884 10.6664 50.6667V34.6667C10.6664 32.5449 11.5093 30.5101 13.0096 29.0098C14.5099 27.5095 16.5447 26.6667 18.6664 26.6667H45.3331C47.4548 26.6667 49.4897 27.5095 50.99 29.0098C52.4902 30.5101 53.3331 32.5449 53.3331 34.6667V50.6667Z" fill="#121A30"/>
<path id="Vector_2" d="M31.9998 37.3325C31.2926 37.3325 30.6143 37.6135 30.1142 38.1136C29.6141 38.6137 29.3331 39.2919 29.3331 39.9992V45.3325C29.3331 46.0397 29.6141 46.718 30.1142 47.2181C30.6143 47.7182 31.2926 47.9992 31.9998 47.9992C32.7071 47.9992 33.3853 47.7182 33.8854 47.2181C34.3855 46.718 34.6665 46.0397 34.6665 45.3325V39.9992C34.6665 39.2919 34.3855 38.6137 33.8854 38.1136C33.3853 37.6135 32.7071 37.3325 31.9998 37.3325Z" fill="#121A30"/>
</g>
<defs>
<clipPath id="clip0_746_619">
<rect width="64" height="64" fill="white"/>
</clipPath>
</defs>
</svg>
