<svg xmlns="http://www.w3.org/2000/svg" width="20" height="20" viewBox="0 0 20 20" fill="none">
  <g clip-path="url(#clip0_1966_2727)">
    <path d="M13.3334 13.3334C13.3334 13.5544 13.2456 13.7663 13.0893 13.9226C12.9331 14.0789 12.7211 14.1667 12.5001 14.1667H10.8334V15.8334C10.8334 16.0544 10.7456 16.2663 10.5893 16.4226C10.4331 16.5789 10.2211 16.6667 10.0001 16.6667C9.77907 16.6667 9.56711 16.5789 9.41083 16.4226C9.25455 16.2663 9.16675 16.0544 9.16675 15.8334V14.1667H7.50008C7.27907 14.1667 7.06711 14.0789 6.91083 13.9226C6.75455 13.7663 6.66675 13.5544 6.66675 13.3334C6.66675 13.1123 6.75455 12.9004 6.91083 12.7441C7.06711 12.5878 7.27907 12.5 7.50008 12.5H9.16675V10.8334C9.16675 10.6123 9.25455 10.4004 9.41083 10.2441C9.56711 10.0878 9.77907 10 10.0001 10C10.2211 10 10.4331 10.0878 10.5893 10.2441C10.7456 10.4004 10.8334 10.6123 10.8334 10.8334V12.5H12.5001C12.7211 12.5 12.9331 12.5878 13.0893 12.7441C13.2456 12.9004 13.3334 13.1123 13.3334 13.3334ZM18.3334 8.73752V15.8334C18.3321 16.938 17.8927 17.9971 17.1116 18.7782C16.3305 19.5593 15.2714 19.9987 14.1667 20H5.83341C4.72875 19.9987 3.66971 19.5593 2.8886 18.7782C2.10748 17.9971 1.66807 16.938 1.66675 15.8334V4.16669C1.66807 3.06202 2.10748 2.00298 2.8886 1.22187C3.66971 0.440754 4.72875 0.00134242 5.83341 1.92072e-05H9.59591C10.3623 -0.00195323 11.1214 0.148009 11.8294 0.441235C12.5375 0.734461 13.1804 1.16513 13.7209 1.70835L16.6242 4.61335C17.1678 5.15355 17.5987 5.79623 17.8921 6.50416C18.1855 7.2121 18.3355 7.9712 18.3334 8.73752V8.73752ZM12.5426 2.88669C12.2803 2.63265 11.9859 2.41412 11.6667 2.23669V5.83335C11.6667 6.05437 11.7545 6.26633 11.9108 6.42261C12.0671 6.57889 12.2791 6.66669 12.5001 6.66669H16.0967C15.9192 6.34768 15.7004 6.05347 15.4459 5.79169L12.5426 2.88669ZM16.6667 8.73752C16.6667 8.60002 16.6401 8.46835 16.6276 8.33335H12.5001C11.837 8.33335 11.2012 8.06996 10.7323 7.60112C10.2635 7.13228 10.0001 6.49639 10.0001 5.83335V1.70585C9.86508 1.69335 9.73258 1.66669 9.59591 1.66669H5.83341C5.17037 1.66669 4.53449 1.93008 4.06565 2.39892C3.59681 2.86776 3.33341 3.50364 3.33341 4.16669V15.8334C3.33341 16.4964 3.59681 17.1323 4.06565 17.6011C4.53449 18.07 5.17037 18.3334 5.83341 18.3334H14.1667C14.8298 18.3334 15.4657 18.07 15.9345 17.6011C16.4034 17.1323 16.6667 16.4964 16.6667 15.8334V8.73752Z" fill="#121A30"/>
  </g>
  <defs>
    <clipPath id="clip0_1966_2727">
      <rect width="20" height="20" fill="white"/>
    </clipPath>
  </defs>
</svg>