<svg xmlns="http://www.w3.org/2000/svg" width="16" height="16" viewBox="0 0 16 16" fill="none">
  <g clip-path="url(#clip0_2607_654)">
    <path d="M15.2193 6.11411L12.6333 3.52811C12.5075 3.40668 12.3391 3.33948 12.1643 3.341C11.9895 3.34252 11.8223 3.41263 11.6987 3.53624C11.5751 3.65984 11.505 3.82705 11.5035 4.00185C11.502 4.17664 11.5692 4.34505 11.6906 4.47078L14.2766 7.05678C14.3534 7.13513 14.4206 7.22242 14.4766 7.31678C14.4666 7.31678 14.4586 7.31145 14.4486 7.31145L3.99259 7.33278C3.81578 7.33278 3.64621 7.40302 3.52119 7.52804C3.39617 7.65307 3.32593 7.82264 3.32593 7.99945C3.32593 8.17626 3.39617 8.34583 3.52119 8.47085C3.64621 8.59588 3.81578 8.66611 3.99259 8.66611L14.4446 8.64478C14.4633 8.64478 14.4786 8.63545 14.4966 8.63411C14.4375 8.74689 14.3625 8.85061 14.2739 8.94211L11.6879 11.5281C11.6243 11.5896 11.5735 11.6632 11.5385 11.7445C11.5036 11.8258 11.4852 11.9133 11.4844 12.0018C11.4837 12.0904 11.5005 12.1782 11.534 12.2601C11.5676 12.342 11.6171 12.4164 11.6797 12.479C11.7423 12.5416 11.8167 12.5911 11.8986 12.6247C11.9806 12.6582 12.0683 12.6751 12.1569 12.6743C12.2454 12.6735 12.3329 12.6551 12.4142 12.6202C12.4955 12.5852 12.5691 12.5345 12.6306 12.4708L15.2166 9.88478C15.7165 9.38471 15.9974 8.70655 15.9974 7.99945C15.9974 7.29234 15.7165 6.61419 15.2166 6.11411H15.2193Z" fill="#374957"/>
    <path d="M4.66667 14.6667H3.33333C2.8029 14.6667 2.29419 14.456 1.91912 14.0809C1.54405 13.7058 1.33333 13.1971 1.33333 12.6667V3.33333C1.33333 2.8029 1.54405 2.29419 1.91912 1.91912C2.29419 1.54405 2.8029 1.33333 3.33333 1.33333H4.66667C4.84348 1.33333 5.01305 1.2631 5.13807 1.13807C5.2631 1.01305 5.33333 0.843478 5.33333 0.666667C5.33333 0.489856 5.2631 0.320286 5.13807 0.195262C5.01305 0.0702379 4.84348 0 4.66667 0L3.33333 0C2.4496 0.00105857 1.60237 0.352588 0.97748 0.97748C0.352588 1.60237 0.00105857 2.4496 0 3.33333L0 12.6667C0.00105857 13.5504 0.352588 14.3976 0.97748 15.0225C1.60237 15.6474 2.4496 15.9989 3.33333 16H4.66667C4.84348 16 5.01305 15.9298 5.13807 15.8047C5.2631 15.6797 5.33333 15.5101 5.33333 15.3333C5.33333 15.1565 5.2631 14.987 5.13807 14.8619C5.01305 14.7369 4.84348 14.6667 4.66667 14.6667Z" fill="#374957"/>
  </g>
  <defs>
    <clipPath id="clip0_2607_654">
      <rect width="16" height="16" fill="white"/>
    </clipPath>
  </defs>
</svg>