<svg xmlns="http://www.w3.org/2000/svg" width="20" height="20" viewBox="0 0 20 20" fill="none">
  <g clip-path="url(#clip0_1454_1894)">
    <path d="M19.2677 7.55739L12.9469 1.23572C12.1646 0.455713 11.1049 0.0177002 10.0002 0.0177002C8.89548 0.0177002 7.83582 0.455713 7.05353 1.23572L0.732693 7.55739C0.499714 7.78888 0.315001 8.0643 0.189262 8.36771C0.0635225 8.67111 -0.000742228 8.99646 0.000193172 9.32489V17.5057C0.000193172 18.1688 0.263585 18.8046 0.732426 19.2735C1.20127 19.7423 1.83715 20.0057 2.50019 20.0057H17.5002C18.1632 20.0057 18.7991 19.7423 19.268 19.2735C19.7368 18.8046 20.0002 18.1688 20.0002 17.5057V9.32489C20.0011 8.99646 19.9369 8.67111 19.8111 8.36771C19.6854 8.0643 19.5007 7.78888 19.2677 7.55739ZM12.5002 18.3391H7.50019V15.0607C7.50019 14.3977 7.76359 13.7618 8.23243 13.293C8.70127 12.8241 9.33715 12.5607 10.0002 12.5607C10.6632 12.5607 11.2991 12.8241 11.768 13.293C12.2368 13.7618 12.5002 14.3977 12.5002 15.0607V18.3391ZM18.3335 17.5057C18.3335 17.7267 18.2457 17.9387 18.0895 18.095C17.9332 18.2513 17.7212 18.3391 17.5002 18.3391H14.1669V15.0607C14.1669 13.9557 13.7279 12.8958 12.9465 12.1144C12.1651 11.333 11.1053 10.8941 10.0002 10.8941C8.89513 10.8941 7.83532 11.333 7.05392 12.1144C6.27251 12.8958 5.83353 13.9557 5.83353 15.0607V18.3391H2.50019C2.27918 18.3391 2.06722 18.2513 1.91094 18.095C1.75466 17.9387 1.66686 17.7267 1.66686 17.5057V9.32489C1.66763 9.10404 1.75535 8.89238 1.91103 8.73572L8.23186 2.41656C8.70161 1.949 9.33741 1.68651 10.0002 1.68651C10.663 1.68651 11.2988 1.949 11.7685 2.41656L18.0894 8.73822C18.2444 8.89426 18.3321 9.10491 18.3335 9.32489V17.5057Z" fill="white"/>
  </g>
  <defs>
    <clipPath id="clip0_1454_1894">
      <rect width="20" height="20" fill="white"/>
    </clipPath>
  </defs>
</svg>