<svg xmlns="http://www.w3.org/2000/svg" width="20" height="20" viewBox="0 0 20 20" fill="none">
  <g clip-path="url(#clip0_1597_2382)">
    <path d="M16.1109 12.223C15.4808 12.2235 14.8604 12.3773 14.303 12.6711C13.7456 12.965 13.2682 13.39 12.9118 13.9096L7.48759 11.4605C7.87284 10.5301 7.87434 9.48519 7.49175 8.55378L12.9084 6.09212C13.4366 6.85608 14.2212 7.40542 15.1197 7.64049C16.0183 7.87556 16.9714 7.78079 17.806 7.37337C18.6407 6.96595 19.3017 6.27287 19.6691 5.41984C20.0366 4.56681 20.0861 3.61034 19.8087 2.72393C19.5314 1.83751 18.9455 1.07986 18.1574 0.588413C17.3692 0.096962 16.4311 -0.0957392 15.513 0.0452638C14.595 0.186267 13.7579 0.651634 13.1536 1.35695C12.5493 2.06227 12.2178 2.96082 12.2193 3.88962C12.2228 4.10945 12.2451 4.32858 12.2859 4.54462L6.52759 7.16128C5.97454 6.64313 5.28218 6.29781 4.53556 6.16775C3.78895 6.03769 3.02061 6.12855 2.32493 6.42916C1.62924 6.72978 1.03652 7.22706 0.619583 7.85992C0.202642 8.49277 -0.0203592 9.23364 -0.0220243 9.99149C-0.0236894 10.7493 0.196054 11.4912 0.61021 12.1259C1.02437 12.7605 1.6149 13.2604 2.30925 13.5641C3.00361 13.8678 3.77154 13.962 4.51872 13.8352C5.26589 13.7084 5.95976 13.3662 6.51509 12.8505L12.2884 15.4571C12.2483 15.673 12.2263 15.8918 12.2226 16.1113C12.2224 16.8806 12.4504 17.6326 12.8777 18.2723C13.305 18.912 13.9124 19.4106 14.623 19.7051C15.3337 19.9995 16.1158 20.0766 16.8703 19.9266C17.6248 19.7766 18.3178 19.4061 18.8618 18.8622C19.4058 18.3182 19.7762 17.6252 19.9262 16.8707C20.0763 16.1162 19.9992 15.3341 19.7047 14.6234C19.4102 13.9127 18.9116 13.3053 18.2719 12.878C17.6322 12.4508 16.8802 12.2228 16.1109 12.223V12.223ZM16.1109 1.66712C16.5505 1.66695 16.9803 1.79716 17.3459 2.04127C17.7115 2.28538 17.9965 2.63243 18.1648 3.03853C18.3332 3.44462 18.3773 3.89152 18.2917 4.32269C18.206 4.75387 17.9944 5.14996 17.6836 5.46087C17.3728 5.77177 16.9768 5.98353 16.5456 6.06935C16.1145 6.15517 15.6676 6.11121 15.2614 5.94302C14.8553 5.77483 14.5081 5.48997 14.2639 5.12446C14.0196 4.75895 13.8893 4.32922 13.8893 3.88962C13.8897 3.30045 14.1239 2.73553 14.5404 2.31885C14.9569 1.90217 15.5218 1.66778 16.1109 1.66712V1.66712ZM3.88925 12.223C3.44965 12.2231 3.01987 12.0929 2.65427 11.8488C2.28867 11.6047 2.00368 11.2576 1.83534 10.8515C1.66699 10.4454 1.62286 9.99855 1.70852 9.56737C1.79418 9.1362 2.00579 8.74011 2.31658 8.4292C2.62737 8.11829 3.02338 7.90654 3.45452 7.82072C3.88567 7.73489 4.33258 7.77886 4.73874 7.94705C5.1449 8.11524 5.49205 8.4001 5.7363 8.76561C5.98055 9.13112 6.11092 9.56085 6.11092 10.0005C6.11026 10.5895 5.876 11.1543 5.45953 11.571C5.04305 11.9876 4.47835 12.2221 3.88925 12.223ZM16.1109 18.3338C15.6714 18.3338 15.2417 18.2034 14.8762 17.9592C14.5107 17.715 14.2258 17.3679 14.0576 16.9618C13.8894 16.5557 13.8454 16.1088 13.9311 15.6777C14.0169 15.2466 14.2286 14.8506 14.5394 14.5397C14.8502 14.2289 15.2462 14.0172 15.6773 13.9315C16.1085 13.8457 16.5553 13.8897 16.9614 14.058C17.3675 14.2262 17.7146 14.511 17.9589 14.8765C18.2031 15.242 18.3334 15.6717 18.3334 16.1113C18.333 16.7006 18.0987 17.2656 17.682 17.6823C17.2653 18.099 16.7002 18.3333 16.1109 18.3338V18.3338Z" fill="#374957"/>
  </g>
  <defs>
    <clipPath id="clip0_1597_2382">
      <rect width="20" height="20" fill="white"/>
    </clipPath>
  </defs>
</svg>