<svg width="63" height="56" viewBox="0 0 63 56" fill="none" xmlns="http://www.w3.org/2000/svg">
<path d="M16.3327 2.91675C12.7889 2.91675 9.91602 5.78959 9.91602 9.33342V46.6668C9.91602 50.2106 12.7889 53.0834 16.3327 53.0834H38.4993C42.0432 53.0834 44.916 50.2106 44.916 46.6668V19.5529C44.916 17.7543 44.1612 16.0383 42.8351 14.8229L31.6867 4.60335C30.5032 3.51854 28.9562 2.91675 27.3508 2.91675H16.3327Z" fill="#F8F8F8"/>
<path d="M32.3036 5.16875C30.4328 3.45389 27.416 4.78097 27.416 7.31878V12.8333C27.416 16.3772 30.2889 19.25 33.8327 19.25H40.1667C42.8267 19.25 44.0984 15.9807 42.1377 14.1833L32.3036 5.16875Z" fill="#D9D9D9"/>
<path d="M39.1934 28.5833C32.9079 28.5833 27.6388 33.2317 27.0984 39.2809C23.9724 40.0182 21.584 42.7375 21.584 46.0833C21.584 50.0159 24.8839 53.0833 28.8027 53.0833H50.6778C51.7323 53.0833 52.7398 52.863 53.6496 52.4642C57.3726 51.1032 60.084 47.6149 60.084 43.4583C60.084 38.076 55.5599 33.8333 50.1309 33.8333C49.864 33.8333 49.5994 33.8435 49.3374 33.8636C47.1573 30.6683 43.4144 28.5833 39.1934 28.5833Z" fill="#D9D9D9"/>
<path d="M10 9.875C5.51992 9.875 1.875 13.5199 1.875 18C1.875 22.4801 5.51992 26.125 10 26.125C14.4801 26.125 18.125 22.4801 18.125 18C18.125 13.5199 14.4801 9.875 10 9.875ZM13.384 20.5L12.5 21.384L10 18.884L7.5 21.384L6.61602 20.5L9.11602 18L6.61602 15.5L7.5 14.616L10 17.116L12.5 14.616L13.384 15.5L10.884 18L13.384 20.5Z" fill="#989898"/>
</svg>
