<svg xmlns="http://www.w3.org/2000/svg" width="10" height="13" viewBox="0 0 10 13" fill="none">
  <path fill-rule="evenodd" clip-rule="evenodd" d="M0.161768 4.45934C-0.00540806 3.31299 0.883404 2.28516 2.04188 2.28516H7.25442C8.41289 2.28516 9.3017 3.31299 9.13453 4.45934L8.1407 11.2742C8.00456 12.2077 7.20402 12.9 6.26059 12.9H3.03571C2.09227 12.9 1.29174 12.2077 1.15559 11.2742L0.161768 4.45934ZM2.04188 3.41849C1.57443 3.41849 1.21578 3.83323 1.28324 4.29579L2.27707 11.1106C2.332 11.4873 2.65502 11.7666 3.03571 11.7666H6.26059C6.64127 11.7666 6.96429 11.4873 7.01923 11.1106L8.01306 4.29579C8.08051 3.83323 7.72187 3.41849 7.25442 3.41849H2.04188Z" fill="white"/>
  <path fill-rule="evenodd" clip-rule="evenodd" d="M2.8963 1.00002C2.8963 0.687055 3.15001 0.43335 3.46297 0.43335H5.83334C6.1463 0.43335 6.4 0.687055 6.4 1.00002C6.4 1.31298 6.1463 1.56668 5.83334 1.56668H3.46297C3.15001 1.56668 2.8963 1.31298 2.8963 1.00002Z" fill="white"/>
  <path fill-rule="evenodd" clip-rule="evenodd" d="M2.8138 6.0114C3.03249 5.98016 3.2351 6.13212 3.26635 6.35081L3.85894 10.499C3.89018 10.7177 3.73822 10.9203 3.51953 10.9515C3.30083 10.9828 3.09822 10.8308 3.06698 10.6121L2.47439 6.46395C2.44314 6.24526 2.5951 6.04264 2.8138 6.0114Z" fill="white"/>
  <path fill-rule="evenodd" clip-rule="evenodd" d="M5.77678 10.9516C5.55808 10.9203 5.40612 10.7177 5.43737 10.499L6.02996 6.35089C6.0612 6.1322 6.26381 5.98024 6.48251 6.01148C6.7012 6.04272 6.85316 6.24534 6.82192 6.46403L6.22933 10.6122C6.19808 10.8309 5.99547 10.9828 5.77678 10.9516Z" fill="white"/>
  <path fill-rule="evenodd" clip-rule="evenodd" d="M4.64814 10.9556C4.42722 10.9556 4.24814 10.7765 4.24814 10.5556L4.24814 6.40742C4.24814 6.1865 4.42722 6.00742 4.64814 6.00742C4.86905 6.00742 5.04814 6.1865 5.04814 6.40742L5.04814 10.5556C5.04814 10.7765 4.86905 10.9556 4.64814 10.9556Z" fill="white"/>
</svg>