<svg xmlns="http://www.w3.org/2000/svg" width="18" height="18" viewBox="0 0 15 15" fill="none">
  <path fill-rule="evenodd" clip-rule="evenodd" d="M7.33247 7.39595C7.05585 7.11933 7.05585 6.67083 7.33247 6.39421L12.0465 1.68017C12.3231 1.40355 12.7716 1.40355 13.0483 1.68017C13.3249 1.95679 13.3249 2.40528 13.0483 2.6819L8.33421 7.39595C8.05758 7.67257 7.60909 7.67257 7.33247 7.39595Z" fill="#121A30"/>
  <path fill-rule="evenodd" clip-rule="evenodd" d="M8.89398 1.5906C8.89398 1.19939 9.21111 0.882263 9.60232 0.882263L12.3208 0.882263C13.1722 0.882263 13.8625 1.57249 13.8625 2.42393L13.8625 5.12843C13.8625 5.51963 13.5453 5.83677 13.1541 5.83677C12.7629 5.83677 12.4458 5.51963 12.4458 5.12843L12.4458 2.42393C12.4458 2.35489 12.3898 2.29893 12.3208 2.29893L9.60232 2.29893C9.21111 2.29893 8.89398 1.9818 8.89398 1.5906Z" fill="#121A30"/>
  <path fill-rule="evenodd" clip-rule="evenodd" d="M4.49998 2.04167C3.05023 2.04167 1.87498 3.21692 1.87498 4.66667V10.5C1.87498 11.9497 3.05023 13.125 4.49998 13.125H10.3333C11.7831 13.125 12.9583 11.9497 12.9583 10.5V7.52381C12.9583 7.13261 13.2754 6.81548 13.6666 6.81548C14.0578 6.81548 14.375 7.13261 14.375 7.52381V10.5C14.375 12.7322 12.5655 14.5417 10.3333 14.5417H4.49998C2.26783 14.5417 0.458313 12.7322 0.458313 10.5V4.66667C0.458313 2.43452 2.26783 0.625 4.49998 0.625H6.85117C7.24237 0.625 7.5595 0.942132 7.5595 1.33333C7.5595 1.72454 7.24237 2.04167 6.85117 2.04167H4.49998Z" fill="#121A30"/>
</svg>